<?xml version="1.0" encoding="UTF-8"?>
<svg id="Layer_1" xmlns="http://www.w3.org/2000/svg" viewBox="0 0 1700 1700">
  <path d="M123.96,1170.01c-16.6,0-22.67-8.66-22.67-22.7,0-3.95.51-5.65.51-11.55,0-13.97-3.17-18.89-19.64-18.89-9.29,0-18.65.15-27.99.15-36.51,0-33.78,5.14-33.78-32.85,0-157.37-.02-314.74-.02-472.11,0-18.67-.33-37.38-.33-55.99,0-19.74,4.17-26.42,25.2-26.15,94,1.19,188.03.52,282.05.52,422.76,0,845.51,0,1268.27,0q27.9,0,27.94,28.6c0,1.33,0,2.67,0,4,.01,41.86-.06,44.42,41.78,44.42,17.63,0,14.42,11.79,14.42,21.94.08,172.99.06,345.99.05,518.98,0,2.16.22,5.69.22,7.85,0,10.55-1.47,13.81-15.92,13.81-5.31,0-10.66-.06-16-.06-504.77,0-1009.55,0-1514.32,0h-9.78ZM41.24,542.84c-4.08,0-7.44,3.19-7.67,7.26-.36,6.36-.67,11.23-.67,16.1-.05,171.44.26,342.87-.45,514.3-.08,19.36,5.58,24.53,24.73,24.51,509.63-.49,1019.26-.52,1528.88.08,20.81.02,25.43-6.13,25.34-25.97-.76-170.1-.43-340.2-.44-510.3q0-25.94-26.32-25.98c-508.29,0-1016.59,0-1524.88,0h-18.52Z"/>
  <path d="M366.64,864.89c1.57-.02,2.95-1.08,3.38-2.59,7.35-25.81,14.76-51.6,22.01-77.44,9.53-34.02,18.93-68.07,28.36-102.12,7.74-27.94,12.07-33.32,36.57-28.39,7.48,1.5,11.88,8.76,9.77,16.09l-.04.13c-25.04,86.44-50.54,172.75-74.95,259.36-4.22,14.99-13.24,15.58-25.25,15.47-11.77-.12-21.22.14-25.36-15.2-15.6-57.91-32.65-115.44-49.22-173.09-.73-2.55-1.51-5.08-2.48-7.6-2.51-6.48-11.88-5.95-13.81.73l-.82,2.85c-16.8,58.29-34.13,116.43-49.85,175.01-4.14,15.43-12.44,17.5-25.85,17.47-13.31-.03-21.68-1.92-25.99-17.34-23.86-85.37-49.01-170.37-73.64-255.53-.25-.86-.48-1.72-.69-2.59-1.78-7.17,2.88-14.31,10.12-15.81,23.75-4.93,28.51.78,36.16,28.26,16.33,58.65,32.64,117.3,53.1,176.82.81,2.35,4.12,2.41,5.01.1,1.48-3.82,2.93-7.66,4.03-11.59,15.8-56.49,31.85-112.91,46.86-169.6,4.14-15.65,8.4-25.38,28.28-25.13,18.88.24,24.77,7.73,29.07,24.23,14.78,56.76,31.02,113.14,46.77,169.65,1.44,5.18,3.17,10.27,4.84,15.39.49,1.49,1.88,2.49,3.45,2.47h.21s0,0,0,0Z"/>
  <path d="M1471.9,736.12c9.09-2.9,18.01-6.67,27.3-8.49,11.09-2.17,15.21,3.76,15.11,14.86-.69,75.32.26,150.69-1.9,225.96-1.24,43.35-26.44,69.37-67.67,77.23-38.53,7.34-72.57-.21-95.37-20.91-12.23-11.1-8.23-31.52,7.38-36.92.09-.03.18-.06.27-.09,4.33-1.48,11.57-.18,15.12,2.74,23.8,19.57,49.76,24.15,73.82,11.9,21.04-10.71,29-31.8,24.58-68.59-5.69,2.73-10.67,5.03-15.58,7.48-47.99,23.99-104.35,5.6-127.67-42.59-18.72-38.69-19.57-78.83-3.2-118.32,23.53-56.77,88.08-76.55,140.04-44.02,2.76,1.72,5.53,3.42,8.29,5.13l-.52-5.37ZM1472.44,870.5c5.73-21.89,5.65-44.91.27-66.89-.86-3.52-1.85-7-3.02-10.42-7.7-22.35-24.99-34.03-48.6-34.74-22.98-.69-42.26,7.77-52.82,29.02-16.06,32.34-16.12,65.65.17,97.89,10.62,21,29.52,29.93,52.86,28.69,23.56-1.25,40.65-12.87,48.55-35.07.99-2.77,1.83-5.6,2.59-8.47Z"/>
  <path d="M762.38,934.35c-3.61,8.54-9.03,11.05-15.3,11.34-12.59.58-22.91-9.55-22.93-22.15v-.14c-.06-82.54.3-165.08-.33-247.61-.12-15.67,3.15-22.55,20.68-22.37,16.51.17,22.44,4.96,21.41,21.62-1.15,18.58-.44,37.28-.32,58.18.02,2.7,2.85,4.47,5.28,3.3,7.76-3.73,13.48-6.64,19.42-9.01,47.59-19.04,102.07,1.58,121.53,49.97,8.86,22.03,13.06,48.02,11.63,71.75-5.75,95.33-91.57,125.36-155.31,83.4-2.05-1.35-4.82-.53-5.77,1.73ZM765.27,803.08c-5.29,21.17-5.39,43.36-.46,64.62.7,3.04,1.51,6.03,2.45,8.98,7.47,23.22,24.46,35.82,48.96,37.3,24.23,1.47,43.53-8.03,54.08-29.95,15.26-31.69,15.54-64.48-.29-96.16-10.98-21.96-30.76-30.52-54.6-29.32-23.74,1.19-40.22,13.67-47.69,36.01-.94,2.8-1.74,5.64-2.46,8.51Z"/>
  <path d="M528.18,847.82c-5.65.3-10.06,5.15-9.68,10.8,1.43,21.36,12.53,38.87,29.79,47.38,22.59,11.15,56.38,9.91,70.79-9.02,9.03-11.87,17.67-15.56,26.83-15,16.41,1,24.85,20.6,14.12,33.05-.06.07-.11.13-.17.2-28.2,32.32-64.76,41.08-105.3,33.33-39.41-7.54-67.71-31.52-76.53-70.37-5.72-25.15-6.37-53.46-1.17-78.67,11.5-55.79,62.49-86.45,119.95-77.04,51.05,8.36,86.06,56.64,82.15,111.73-.91,12.81-7.72,13.26-17.13,13.23-40.69-.14-81.37-.1-122.06,0-3.87,0-7.74.18-11.57.38ZM625.52,814.45c4.39,0,7.79-3.75,7.48-8.13-2.15-30.7-23.58-49.71-55.15-49.17-32.03.55-55.74,21.05-57.52,49.09-.28,4.44,3.25,8.2,7.7,8.2h97.48Z"/>
  <path d="M1279.43,835.7c.11,76.58-51.74,123.64-125.63,113.92-5.25-.69-10.5-1.86-15.57-3.4-53.66-16.39-82.66-75.34-69.15-140.3,11.9-57.19,58-90.16,117.61-84.11,55.23,5.61,92.66,51.56,92.75,113.89ZM1110.22,835.16c-.13,42.78,16.47,69.09,47.67,75.58,37.5,7.8,65.48-10.12,74.75-47.86,11.61-47.26-6.23-90.81-41.22-100.46-3.18-.88-6.51-1.37-9.81-1.69-45.18-4.48-71.24,22.72-71.4,74.45Z"/>
  <path d="M1015.81,797.65c0,43.25-.67,86.51.34,129.73.38,16.44-7.31,18.22-20.57,18.16-13.06-.06-20.83-1.43-20.69-18.01.72-87.15.71-174.31,0-261.46-.14-16.44,7.23-18.19,20.56-18.12,13.11.07,21.1,1.31,20.71,17.98-1.02,43.89-.34,87.81-.35,131.72Z"/>
</svg>